<svg xmlns="http://www.w3.org/2000/svg" style="display: none;"><symbol id="fat" viewBox="0 0 512 512"><title>fat</title><path d="m56 496 16-88h368l16 88z" fill="#68737f"/><path d="m496 128.84v167.16l-39.3501-44.96-10.8599-12.42-.00977-.01a39.74978 39.74978 0 0 1 -16.83007 14.86q-1.20045.57-2.46 1.05a3.149 3.149 0 0 1 -.39013.15 1.90453 1.90453 0 0 1 -.21.09l6.71972 14.56 13.33008 28.89a109.31512 109.31512 0 0 1 9.85986 39.14q.19557 3.315.2002 6.65v10.75a109.25483 109.25483 0 0 1 -109.24989 109.25h-181.5a109.25483 109.25483 0 0 1 -109.25-109.25v-10.75q0-3.33.2-6.65a109.31566 109.31566 0 0 1 9.86011-39.14l13.33003-28.89v-.01l6.71972-14.55q-.14978-.06006-.2998-.12-1.40991-.54006-2.76-1.17a39.74694 39.74694 0 0 1 -16.83006-14.86l-.01.01-10.8599 12.41-39.3501 44.97v-167.16l15.93994-46.98a108.775 108.775 0 0 1 62.11011-65.86h323.90015a108.78457 108.78457 0 0 1 62.10986 65.86z" fill="#fdc5ca"/><g fill="#fc979e"><path d="m248 400h16v16h-16z"/><path d="m425.89014 254.76 6.71972 14.56c-.46.18-.92968.36-1.3999.53a55.96933 55.96933 0 0 1 -19.2998 3.45 55.3534 55.3534 0 0 1 -24.98-5.95l-37.5-18.75a56.045 56.045 0 0 1 -11.83008-7.94l-60.14008-52.62 10.54-12.04 60.14014 52.62a39.8028 39.8028 0 0 0 8.4497 5.67l37.5 18.75a39.45226 39.45226 0 0 0 17.82032 4.26 39.88568 39.88568 0 0 0 13.7998-2.48c.25977-.1.52-.19.78027-.3-.20023.09-.40039.16-.60009.24z"/><path d="m234.54 188.04-60.1499 52.62a55.73816 55.73816 0 0 1 -11.82007 7.94l-37.5 18.75a55.35572 55.35572 0 0 1 -24.98 5.95 56.0116 56.0116 0 0 1 -19.3-3.45c-.47-.17-.93994-.35-1.3999-.53v-.01l6.71972-14.55q-.14978-.06006-.2998-.12.23987.09.48.18a39.885 39.885 0 0 0 13.80005 2.48 39.44946 39.44946 0 0 0 17.81982-4.26l37.5-18.75a39.79179 39.79179 0 0 0 8.45-5.67l60.14008-52.62z"/><path d="m112 176h16v16h-16z"/><path d="m384 176h16v16h-16z"/><path d="m496 240-32.85929-79.80093a107.40928 107.40928 0 0 1 -7.26083-54.21907l-15.87988-1.98-6.5 51.99a39.83445 39.83445 0 0 0 3.91016 22.83l10.2998 20.6a39.89584 39.89584 0 0 1 .99024 33.62 41.5503 41.5503 0 0 1 -2.91016 5.58l50.20996 57.38z"/><path d="m16 240 32.85929-79.80093a107.40928 107.40928 0 0 0 7.26083-54.21907l15.87988-1.98 6.5 51.99a39.83445 39.83445 0 0 1 -3.91016 22.83l-10.29984 20.6a39.89584 39.89584 0 0 0 -.99024 33.62 41.5503 41.5503 0 0 0 2.91024 5.58l-50.21 57.38z"/><path d="m456 344v10.75a109.25483 109.25483 0 0 1 -109.25 109.25h-181.5a109.25483 109.25483 0 0 1 -109.25-109.25v-10.75q0-3.33.2-6.65a109.25941 109.25941 0 0 0 109.05 102.65h181.5a109.2582 109.2582 0 0 0 109.0498-102.65q.19557 3.315.2002 6.65z"/></g></symbol><symbol id="belly" viewBox="0 0 58 58"><title>belly</title><path id="Shape" d="m58 22c0 8.32-.69 18.03-3.24 24.51-.4566394 1.2244726-1.0468708 2.3948747-1.76 3.49h-48c-.71263034-1.0969644-1.30599901-2.2669399-1.77-3.49-2.54-6.48-3.23-16.19-3.23-24.51 0-9.16 1.68-18.32 2.73-21.33.1397915-.39989112.51638257-.66831242.94-.67h50.66c.4236174.00168758.8002085.27010888.94.67 1.05 3.01 2.73 12.17 2.73 21.33z" fill="#fdd7ad"/><path id="Shape" d="m54.76 46.51c-.4566394 1.2244726-1.0468708 2.3948747-1.76 3.49h-48c-.71263034-1.0969644-1.30599901-2.2669399-1.77-3.49.42708658-4.1993243 1.48918623-8.3094813 3.15-12.19-.73470865-2.336512-1.17806384-4.754813-1.32-7.2-.08850707-1.4989135-.08182699-3.0019324.02-4.5-.73083719-1.7826684-1.0980282-3.6934216-1.08-5.62.08931199-3.8023397.94648489-7.54736893 2.52-11.01v-1.09c-.31938244-1.61451687-.49341203-3.25441106-.52-4.9h46c-.0269741 1.77537846-.2279352 3.54383639-.6 5.28 1.7581539 3.29638928 2.6526403 6.9844256 2.6 10.72.0195502 1.9416126-.3546501 3.8670429-1.1 5.66.1794644 1.8143872.2129053 3.6402581.1 5.46-.1450841 2.4734162-.5985957 4.9190196-1.35 7.28 1.6413202 3.8567722 2.689846 7.939617 3.11 12.11z" fill="#f9c795"/><path id="Shape" d="m53 51c-.0005248 2.111492-.2659302 4.2145784-.79 6.26-.1123842.4376646-.5081449.7427302-.96.74h-44.5c-.45185509.0027302-.84761584-.3023354-.96-.74-.52406976-2.0454216-.78947523-4.148508-.79-6.26-.00349021-3.3712739.40964042-6.7300596 1.23-10 4.5283401 6.6634016 11.7587798 10.9972768 19.77 11.85l13-1.67c5.1727194-2.0506474 9.6180881-5.5944103 12.77-10.18.8203596 3.2699404 1.2334902 6.6287261 1.23 10z" fill="#35495e"/><path id="Shape" d="m50 0c-.0278055 1.88581705-.2761606 3.76190478-.74 5.59l-40.74.86v-1.76c-.32056708-1.54348126-.49467317-3.11378422-.52-4.69z" fill="#2fa8cc"/><path id="Rectangle-path" d="m28 53h2v5h-2z" fill="#2c3e50"/><path id="Shape" d="m52 16c.0246005 1.7186853-.3162591 3.422983-1 5-.08-.16-.17-.31-.26-.46v-.01c0-.0055228-.0044772-.01-.01-.01-1.11-1.67-3.39-2.44-10.73-1.52-8 1-10-2-19-2-5.0488118-.1041991-9.9647943 1.622078-13.84 4.86-.11.09-.16.14-.16.14-.68374094-1.577017-1.02460049-3.2813147-1-5 0-4.65 2.41-16.53 11-16.95l26-.05c8 4 9 11.93 9 16z" fill="#67b9cc"/><path id="Shape" d="m51.77 41c-3.1519119 4.5855897-7.5972806 8.1293526-12.77 10.18l-13 1.67c-8.0112202-.8527232-15.2416599-5.1865984-19.77-11.85.55603118-2.2335475 1.31243019-4.4123783 2.26-6.51h.06c3.66 10.12 13.09 13.51 20.48 13.51s16.83-3.39 20.48-13.51c.9475698 2.0976217 1.7039688 4.2764525 2.26 6.51z" fill="#f0c419"/><path id="Shape" d="m32 48c3.2.04 7 .35 7 2v4s-3.55-.59-7.01-.86z" fill="#f29c1f"/><path id="Shape" d="m31.98 47.81c.0121246.0626394.0188162.126209.02.19v5c0 .5522847-.4477153 1-1 1h-4c-.5522847 0-1-.4477153-1-1v-5c.0011838-.063791.0078754-.1273606.02-.19z" fill="#f3d55b"/><path id="Shape" d="m51 27c-1 16-12.98 21-21.97 21s-20.97-5-21.97-21c-.10883897-1.7131512-.07539097-3.4323785.1-5.14 3.8752057-3.237922 8.7911882-4.9641991 13.84-4.86 9 0 11 3 19 2 7.34-.92 9.62-.15 10.73 1.52.0055228 0 .01.0044772.01.01v.01c.3132182 2.138234.4003656 4.3035103.26 6.46z" fill="#fdd7ad"/><path id="Shape" d="m29 44c-2.996651.0766824-5.9565394-.6734097-8.555-2.168-.4595009-.306518-.583518-.9274991-.277-1.387.3065181-.4595009.9274991-.583518 1.387-.277 2.2745727 1.261922 4.8445685 1.8943239 7.445 1.832 2.6014309.0715611 5.1738285-.5614318 7.445-1.832.297245-.1982824.6776931-.2229246.9980332-.0646441.3203401.1582804.5319049.4754371.555.832s-.1457882.6983617-.4430332.8966441c-2.5984606 1.4945903-5.558349 2.2446824-8.555 2.168z" fill="#f9c795"/><circle id="Oval" cx="29" cy="30" fill="#f9c795" r="2"/><path id="Shape" d="m51.96 17c-.0799722 1.3797556-.4050484 2.7342394-.96 4-.08-.16-.17-.31-.26-.46v-.01c0-.0055228-.0044772-.01-.01-.01-1.11-1.67-3.39-2.44-10.73-1.52-8 1-10-2-19-2-5.0488118-.1041991-9.9647943 1.622078-13.84 4.86-.11.09-.16.14-.16.14-.5301493-1.203532-.8514108-2.488578-.95-3.8 2.41-1.68 8.32-5.06 14.95-5.06 9 0 11 3 19 2 5.91-.74 10.01.47 11.96 1.86z" fill="#3b97d3"/></symbol><symbol id="slim" viewBox="0 0 497 497"><title>slim</title><path d="m370.327 49.699c3.048-18.608 6.577-33.744 8.725-42.237.958-3.79-1.91-7.462-5.819-7.462h-124.733-124.733c-3.91 0-6.777 3.672-5.819 7.462 2.148 8.493 5.677 23.63 8.725 42.239l5.86 66.265c0 99.4-54.618 157.509-61.848 185.973h.001c-2.872 9.29-4.42 19.161-4.42 29.394 0 71.859 25.199 144.38 31.646 161.756.873 2.354 3.114 3.911 5.625 3.911h114.836c3.026 0 5.58-2.248 5.954-5.25 3.904-31.338 7.606-78.901 7.606-78.901h33.133s3.702 47.563 7.606 78.901c.374 3.003 2.928 5.25 5.954 5.25h114.836c2.51 0 4.752-1.557 5.625-3.911 6.446-17.376 31.646-89.897 31.646-161.756 0-10.233-1.548-20.104-4.42-29.394h.001c-7.23-28.463-61.848-86.573-61.848-185.973z" fill="#ffe0cf"/><g fill="#ffc8ba"><path d="m200.65 497h17.723c3.026 0 5.58-2.248 5.954-5.25 3.904-31.338 7.606-78.901 7.606-78.901l-21.3-17.272c.001-.001-5.841 70.482-9.983 101.423z"/><path d="m430.733 331.333c0-10.233-1.548-20.104-4.42-29.394h.001c-7.23-28.463-61.848-86.573-61.848-185.973l5.86-66.268c3.049-18.609 6.577-33.744 8.725-42.237.959-3.789-1.909-7.461-5.818-7.461h-15.199s-5.94 20.605-10.706 49.699l-5.86 66.268c0 99.4 54.618 157.509 61.848 185.973h-.001c2.872 9.29 4.42 19.161 4.42 29.394-.002 82.398-33.135 165.666-33.135 165.666h18.863c2.51 0 4.752-1.557 5.625-3.911 6.446-17.376 31.645-89.896 31.645-161.756z"/></g><g><path d="m248.5 222.867c-4.143 0-7.5-3.357-7.5-7.5v-8.283c0-4.143 3.357-7.5 7.5-7.5s7.5 3.357 7.5 7.5v8.283c0 4.143-3.357 7.5-7.5 7.5z" fill="#ffc8ba"/></g><path d="m408.167 115.967h-319.334c-3.314 0-6-2.686-6-6v-54.267c0-3.314 2.686-6 6-6h319.333c3.314 0 6 2.686 6 6v54.267c.001 3.314-2.686 6-5.999 6z" fill="#ffda45"/><g fill="#717891"><path d="m123.467 49.7v16.566c0 4.143-3.357 7.5-7.5 7.5s-7.5-3.357-7.5-7.5v-16.566z"/><path d="m189.734 49.7v16.566c0 4.143-3.357 7.5-7.5 7.5s-7.5-3.357-7.5-7.5v-16.566z"/><path d="m256 49.7v16.566c0 4.143-3.357 7.5-7.5 7.5s-7.5-3.357-7.5-7.5v-16.566z"/><path d="m322.267 49.7v16.566c0 4.143-3.357 7.5-7.5 7.5s-7.5-3.357-7.5-7.5v-16.566z"/></g><path d="m474.433 149.1h-21.358c-3.19 0-5.775-2.586-5.775-5.775 0-4.613-5.141-7.364-8.979-4.805l-33.513 22.342c-3.429 2.286-3.429 7.325 0 9.611l33.513 22.342c3.838 2.559 8.979-.193 8.979-4.805 0-3.19 2.586-5.775 5.775-5.775h21.358c3.314 0 6-2.686 6-6v-21.135c0-3.314-2.686-6-6-6z" fill="#06ccab"/><path d="m22.567 182.233h21.358c3.19 0 5.775 2.586 5.775 5.775 0 4.613 5.141 7.364 8.979 4.805l33.513-22.342c3.429-2.286 3.429-7.325 0-9.611l-33.513-22.342c-3.838-2.559-8.979.193-8.979 4.805 0 3.19-2.586 5.775-5.775 5.775h-21.358c-3.314 0-6 2.686-6 6v21.133c0 3.316 2.686 6.002 6 6.002z" fill="#06ccab"/><path d="m408.167 49.7h-23c3.314 0 6 2.686 6 6v54.267c0 3.314-2.686 6-6 6h23c3.314 0 6-2.686 6-6v-54.267c0-3.314-2.687-6-6-6z" fill="#ffae4d"/><path d="m224.025 409.382c2.491 1.507 5.161 2.664 7.932 3.466h33.085c2.771-.803 5.441-1.959 7.933-3.466l156.367-94.606c-.735-4.381-1.741-8.67-3.029-12.836h.001c-1.421-5.593-4.676-12.336-8.982-20.306h-337.665c-4.306 7.97-7.561 14.713-8.981 20.306h.001c-1.288 4.167-2.294 8.456-3.029 12.836z" fill="#ff7045"/><path d="m429.342 314.773c-.183-1.089-.383-2.172-.599-3.249-.004-.022-.009-.044-.014-.066-.209-1.037-.434-2.068-.675-3.094-.057-.242-.121-.482-.18-.723-.199-.821-.402-1.64-.621-2.452-.296-1.09-.607-2.175-.939-3.249h.001c-.159-.626-.349-1.272-.553-1.927-.044-.142-.088-.284-.135-.428-.21-.652-.437-1.314-.688-1.994-.03-.081-.063-.163-.093-.244-.242-.645-.502-1.304-.778-1.975-.048-.116-.094-.23-.142-.347-.306-.732-.63-1.479-.974-2.242-.046-.101-.094-.204-.14-.306-.351-.771-.716-1.555-1.103-2.357-.008-.016-.015-.032-.023-.049-.409-.846-.838-1.711-1.284-2.592-.038-.076-.077-.152-.116-.228-.915-1.801-1.901-3.672-2.953-5.618h-23c4.306 7.97 7.561 14.713 8.982 20.306h-.001c2.548 8.243 4.048 16.945 4.355 25.95l21.674-13.113c-.001 0-.001-.002-.001-.003z" fill="#f44945"/><path d="m388.533 49.7v16.566c0 4.143-3.357 7.5-7.5 7.5s-7.5-3.357-7.5-7.5v-16.566z" fill="#717891"/></symbol><symbol id="warning" viewBox="0 0 511.999 511.999"><title>warning</title><path style="fill:#E50027;" d="M501.449,368.914L320.566,66.207C306.751,43.384,282.728,29.569,256,29.569 s-50.752,13.815-64.567,36.638L10.55,368.914c-13.812,23.725-14.113,51.954-0.599,75.678c13.513,23.723,37.836,37.838,65.165,37.838 h361.766c27.329,0,51.653-14.115,65.165-37.838C515.563,420.868,515.262,392.639,501.449,368.914z"/><path style="fill:#C1001F;" d="M502.049,444.592c-13.513,23.723-37.836,37.838-65.165,37.838H256V29.57 c26.727,0,50.752,13.815,64.567,36.638L501.45,368.915C515.262,392.639,515.563,420.868,502.049,444.592z"/><path style="fill:#FD003A;" d="M75.109,452.4c-16.628,0-30.851-8.27-39.063-22.669c-8.211-14.414-8.065-31.087,0.469-45.72 L217.23,81.549c8.27-13.666,22.816-21.951,38.769-21.951s30.5,8.284,38.887,22.157l180.745,302.49 c8.388,14.4,8.534,31.072,0.322,45.485c-8.211,14.4-22.435,22.669-39.063,22.669H75.109V452.4z"/><path style="fill:#E50027;" d="M436.891,452.4c16.628,0,30.851-8.27,39.063-22.669c8.211-14.414,8.065-31.087-0.322-45.485 L294.886,81.754c-8.388-13.871-22.933-22.157-38.887-22.157V452.4H436.891z"/><path style="fill:#E1E4FB;" d="M286.03,152.095v120.122c0,16.517-13.514,30.03-30.03,30.03s-30.031-13.514-30.031-30.03V152.095 c0-16.517,13.514-30.031,30.031-30.031S286.03,135.578,286.03,152.095z"/><path style="fill:#C5C9F7;" d="M286.03,152.095v120.122c0,16.517-13.514,30.03-30.03,30.03V122.064 C272.516,122.064,286.03,135.578,286.03,152.095z"/><path style="fill:#E1E4FB;" d="M256,332.278c-24.926,0-45.046,20.119-45.046,45.046c0,24.924,20.119,45.046,45.046,45.046 s45.046-20.121,45.046-45.046C301.046,352.398,280.925,332.278,256,332.278z"/><path style="fill:#C5C9F7;" d="M301.046,377.323c0,24.924-20.119,45.046-45.046,45.046v-90.091 C280.925,332.278,301.046,352.398,301.046,377.323z"/></symbol><symbol id="normal2" viewBox="0 0 455.431 455.431"><title>checked</title><path style="fill:#8DC640;" d="M405.493,412.764c-69.689,56.889-287.289,56.889-355.556,0c-69.689-56.889-62.578-300.089,0-364.089 s292.978-64,355.556,0S475.182,355.876,405.493,412.764z"/><g style="opacity:0.2;"> <path style="fill:#FFFFFF;" d="M229.138,313.209c-62.578,49.778-132.267,75.378-197.689,76.8 c-48.356-82.489-38.4-283.022,18.489-341.333c51.2-52.622,211.911-62.578,304.356-29.867 C377.049,112.676,330.116,232.142,229.138,313.209z"/> </g><path style="fill:#FFFFFF;" d="M195.004,354.453c-9.956,0-19.911-4.267-25.6-12.8l-79.644-102.4 c-11.378-14.222-8.533-34.133,5.689-45.511s34.133-8.533,45.511,5.689l54.044,69.689l119.467-155.022 c11.378-14.222,31.289-17.067,45.511-5.689s17.067,31.289,5.689,45.511L220.604,341.653 C213.493,348.764,204.96,354.453,195.004,354.453z"/></symbol><symbol id="normal" viewBox="0 0 512 512"><title>check</title><path d="m512 256c0 141.386719-114.613281 256-256 256s-256-114.613281-256-256 114.613281-256 256-256 256 114.613281 256 256zm0 0" fill="#60daa8"/><path d="m237.539062 428.992188c21.125-20.019532 30.492188-47.675782 30.492188-47.675782l-34.046875-28.90625s-41.835937-80.371094-41.578125-80.167968c-93.40625-108.621094-22.890625-255.890626-22.09375-257.550782-99.234375 35.25-170.3125 129.984375-170.3125 241.308594 0 131.761719 99.566406 240.277344 227.554688 254.4375-16.675782-25.257812-12.875-59.777344 9.984374-81.445312zm0 0" fill="#00ce8e"/><path d="m240.351562 393.605469c-7.976562 0-15.996093-2.550781-22.753906-7.765625l-120.679687-93.089844c-16.304688-12.574219-19.328125-35.988281-6.75-52.292969 12.574219-16.300781 35.988281-19.324219 52.292969-6.75l93.367187 72.027344 128.820313-142.570313c13.804687-15.277343 37.378906-16.472656 52.660156-2.664062 15.277344 13.800781 16.472656 37.378906 2.664062 52.65625l-151.941406 168.160156c-7.328125 8.109375-17.46875 12.289063-27.679688 12.289063zm0 0" fill="#fffcdc"/></symbol></svg>